<?xml version="1.0" standalone="no"?>
<!DOCTYPE svg PUBLIC "-//W3C//DTD SVG 20010904//EN"
 "http://www.w3.org/TR/2001/REC-SVG-20010904/DTD/svg10.dtd">
<svg version="1.0" xmlns="http://www.w3.org/2000/svg"
 width="500.000000pt" height="500.000000pt" viewBox="0 0 500.000000 500.000000"
 preserveAspectRatio="xMidYMid meet">

<g transform="translate(0.000000,500.000000) scale(0.100000,-0.100000)"
fill="#000000" stroke="none">
<path d="M2395 4154 c-374 -57 -684 -214 -953 -483 -215 -215 -384 -514 -461
-816 -67 -260 -68 -613 -2 -870 l17 -70 587 -3 587 -2 0 381 c0 265 -4 394
-12 421 -17 57 -61 87 -140 96 -55 6 -63 10 -66 30 l-3 22 346 0 346 0 -3 -22
c-3 -20 -10 -24 -66 -29 -118 -11 -155 -65 -156 -223 -1 -93 1 -106 29 -160
119 -234 458 -330 634 -180 89 77 111 191 55 294 -46 84 -123 144 -369 285
-240 138 -317 196 -372 282 -141 220 -23 512 240 595 122 39 270 25 435 -41
29 -11 64 -21 78 -21 28 0 84 49 84 74 0 9 8 16 20 16 20 0 20 -7 20 -275 l0
-275 -25 0 c-21 0 -25 5 -25 31 0 46 -28 146 -57 202 -36 71 -116 152 -182
184 -46 22 -74 28 -152 31 -119 5 -177 -16 -242 -88 -85 -94 -88 -191 -9 -288
50 -63 112 -106 367 -253 265 -154 346 -220 394 -323 39 -82 46 -144 27 -235
-38 -180 -176 -306 -382 -347 -118 -23 -223 -13 -378 36 -145 46 -157 47 -180
21 -15 -16 -17 -36 -14 -128 l3 -108 922 -3 922 -2 11 40 c5 22 14 57 19 78
21 82 41 270 41 387 0 559 -256 1078 -700 1419 -228 176 -507 288 -810 325
-114 15 -315 12 -425 -5z"/>
<path d="M2328 1843 c21 -4 23 -9 20 -51 -3 -42 -6 -47 -26 -46 -14 0 -19 -3
-13 -9 5 -5 17 -7 27 -5 16 3 20 14 22 61 3 57 3 57 -25 56 -24 -2 -25 -2 -5
-6z"/>
<path d="M2447 1839 c-52 -30 -31 -108 29 -109 26 0 50 19 59 47 4 17 -1 29
-19 48 -27 27 -41 30 -69 14z m63 -19 c24 -24 24 -29 4 -58 -19 -28 -58 -28
-78 -1 -16 23 -12 47 12 67 22 17 39 15 62 -8z"/>
<path d="M2590 1790 l0 -60 39 0 c43 0 67 20 56 47 -5 10 -7 26 -6 37 3 24
-15 36 -56 36 l-33 0 0 -60z m77 34 c3 -9 0 -20 -8 -25 -11 -7 -10 -11 5 -22
26 -19 12 -37 -28 -37 -34 0 -34 0 -34 50 0 49 1 50 29 50 18 0 32 -6 36 -16z"/>
<path d="M2752 1838 c-21 -21 -13 -39 24 -54 42 -18 40 -39 -4 -39 -16 0 -28
-3 -25 -7 6 -11 45 -10 61 1 20 12 10 46 -15 49 -12 2 -27 9 -33 17 -18 22 -1
38 34 31 22 -4 27 -3 16 4 -20 13 -44 12 -58 -2z"/>
<path d="M2860 1848 c0 -4 9 -22 20 -40 11 -18 20 -44 21 -58 l1 -25 8 27 c4
15 18 45 30 65 19 34 3 21 -21 -17 -8 -13 -11 -13 -22 3 -24 37 -36 52 -37 45z"/>
<path d="M1110 1627 c0 -7 23 -53 51 -102 176 -308 445 -560 752 -705 228
-108 405 -150 667 -157 248 -7 405 18 630 99 273 98 575 323 755 562 63 84
185 284 185 303 0 10 -175 13 -873 13 l-874 0 -11 -50 c-18 -77 -61 -160 -111
-213 -106 -114 -308 -160 -430 -98 -117 60 -133 212 -26 257 84 35 129 10 181
-100 43 -90 75 -117 115 -96 36 20 49 70 49 190 l0 110 -530 0 c-427 0 -530
-3 -530 -13z"/>
</g>
</svg>
